<!DOCTYPE svg PUBLIC "-//W3C//DTD SVG 1.1//EN" "http://www.w3.org/Graphics/SVG/1.1/DTD/svg11.dtd">
<!-- Uploaded to: SVG Repo, www.svgrepo.com, Transformed by: SVG Repo Mixer Tools -->
<svg width="800px" height="800px" viewBox="-25.6 -25.6 307.20 307.20" xmlns="http://www.w3.org/2000/svg" preserveAspectRatio="xMinYMin meet" fill="#d28e8e" stroke="#d28e8e">
<g id="SVGRepo_bgCarrier" stroke-width="0">
<path transform="translate(-25.6, -25.6), scale(9.6)" d="M16,24.52664102986455C18.528375532964077,25.151898693039414,19.376372571844072,29.561647664776167,21.977343196915744,29.42533263051895C24.042214590991335,29.317114178489184,23.652369174081795,25.668344867973005,24.948910229167538,24.057634962400762C26.16137494585239,22.551374191358704,28.558175565077253,22.10669095044994,29.30438248698315,20.322855916236964C30.044755620664745,18.55296676688675,28.984631075364312,16.56158855416939,28.88610962529467,14.645615302283733C28.782553326355774,12.631727984436262,29.962270356874164,10.241367836273675,28.704913208934048,8.6648149387911C27.377384377881583,7.00027640372477,24.55067828321543,7.811053698446639,22.65785802947942,6.836244579160695C21.095759751411713,6.031758446007953,20.412773394504352,3.5965441899887916,18.65885715505142,3.4910605715428797C16.80958863794443,3.3798422988143044,15.785183002942626,6.138131722977902,13.940748249280713,6.311982210569807C11.75144996575922,6.518338425295577,9.792880368644308,3.9740406525668237,7.664625669016274,4.527341470474491C5.746677269903002,5.025967136904146,4.595418121913054,7.13996719795794,3.79048605394453,8.950833836570375C3.005510674907712,10.716803640230266,3.085424931144685,12.720005597006582,3.164670248168104,14.650952482050913C3.2376521338255175,16.429280212548846,3.593670628725761,18.16251904341083,4.23664056936356,19.822147172880882C4.860742572790329,21.43307355540855,5.647229064653025,23.000436257340713,6.871600754858324,24.219247598290906C8.072368368867325,25.414562058358566,9.515027800560173,26.705181670126287,11.208358253940679,26.762203569023818C12.989316196043813,26.822176271642274,14.270142753713444,24.098853905152406,16,24.52664102986455" fill="#7ed0ec" strokewidth="0"/>
</g>
<g id="SVGRepo_tracerCarrier" stroke-linecap="round" stroke-linejoin="round"/>
<g id="SVGRepo_iconCarrier"> <g fill="#161614"> <path d="M127.505 0C57.095 0 0 57.085 0 127.505c0 56.336 36.534 104.13 87.196 120.99 6.372 1.18 8.712-2.766 8.712-6.134 0-3.04-.119-13.085-.173-23.739-35.473 7.713-42.958-15.044-42.958-15.044-5.8-14.738-14.157-18.656-14.157-18.656-11.568-7.914.872-7.752.872-7.752 12.804.9 19.546 13.14 19.546 13.14 11.372 19.493 29.828 13.857 37.104 10.6 1.144-8.242 4.449-13.866 8.095-17.05-28.32-3.225-58.092-14.158-58.092-63.014 0-13.92 4.981-25.295 13.138-34.224-1.324-3.212-5.688-16.18 1.235-33.743 0 0 10.707-3.427 35.073 13.07 10.17-2.826 21.078-4.242 31.914-4.29 10.836.048 21.752 1.464 31.942 4.29 24.337-16.497 35.029-13.07 35.029-13.07 6.94 17.563 2.574 30.531 1.25 33.743 8.175 8.929 13.122 20.303 13.122 34.224 0 48.972-29.828 59.756-58.22 62.912 4.573 3.957 8.648 11.717 8.648 23.612 0 17.06-.148 30.791-.148 34.991 0 3.393 2.295 7.369 8.759 6.117 50.634-16.879 87.122-64.656 87.122-120.973C255.009 57.085 197.922 0 127.505 0"/> <path d="M47.755 181.634c-.28.633-1.278.823-2.185.389-.925-.416-1.445-1.28-1.145-1.916.275-.652 1.273-.834 2.196-.396.927.415 1.455 1.287 1.134 1.923M54.027 187.23c-.608.564-1.797.302-2.604-.589-.834-.889-.99-2.077-.373-2.65.627-.563 1.78-.3 2.616.59.834.899.996 2.08.36 2.65M58.33 194.39c-.782.543-2.06.034-2.849-1.1-.781-1.133-.781-2.493.017-3.038.792-.545 2.05-.055 2.85 1.07.78 1.153.78 2.513-.019 3.069M65.606 202.683c-.699.77-2.187.564-3.277-.488-1.114-1.028-1.425-2.487-.724-3.258.707-.772 2.204-.555 3.302.488 1.107 1.026 1.445 2.496.7 3.258M75.01 205.483c-.307.998-1.741 1.452-3.185 1.028-1.442-.437-2.386-1.607-2.095-2.616.3-1.005 1.74-1.478 3.195-1.024 1.44.435 2.386 1.596 2.086 2.612M85.714 206.67c.036 1.052-1.189 1.924-2.705 1.943-1.525.033-2.758-.818-2.774-1.852 0-1.062 1.197-1.926 2.721-1.951 1.516-.03 2.758.815 2.758 1.86M96.228 206.267c.182 1.026-.872 2.08-2.377 2.36-1.48.27-2.85-.363-3.039-1.38-.184-1.052.89-2.105 2.367-2.378 1.508-.262 2.857.355 3.049 1.398"/> </g> </g>
</svg>